<svg xmlns="http://www.w3.org/2000/svg" width="512" height="512" viewBox="0 0 32 32" fill="none" aria-label="Glev">
  <rect width="32" height="32" rx="9" fill="#0F0F14"/>
  <line x1="16" y1="7" x2="25" y2="12" stroke="#4F6EF7" stroke-width="0.9" stroke-opacity="0.55"/>
  <line x1="25" y1="12" x2="25" y2="20" stroke="#4F6EF7" stroke-width="0.9" stroke-opacity="0.55"/>
  <line x1="25" y1="20" x2="18" y2="26" stroke="#4F6EF7" stroke-width="0.9" stroke-opacity="0.55"/>
  <line x1="18" y1="26" x2="9"  y2="22" stroke="#4F6EF7" stroke-width="0.9" stroke-opacity="0.55"/>
  <line x1="9"  y1="22" x2="7"  y2="14" stroke="#4F6EF7" stroke-width="0.9" stroke-opacity="0.55"/>
  <line x1="7"  y1="14" x2="16" y2="7"  stroke="#4F6EF7" stroke-width="0.9" stroke-opacity="0.55"/>
  <line x1="16" y1="7"  x2="16" y2="16" stroke="#4F6EF7" stroke-width="0.9" stroke-opacity="0.55"/>
  <line x1="25" y1="12" x2="16" y2="16" stroke="#4F6EF7" stroke-width="0.9" stroke-opacity="0.55"/>
  <line x1="25" y1="20" x2="16" y2="16" stroke="#4F6EF7" stroke-width="0.9" stroke-opacity="0.55"/>
  <line x1="18" y1="26" x2="16" y2="16" stroke="#4F6EF7" stroke-width="0.9" stroke-opacity="0.55"/>
  <circle cx="16" cy="7"  r="2" fill="#4F6EF740" stroke="#4F6EF7" stroke-width="0.8"/>
  <circle cx="25" cy="12" r="2" fill="#4F6EF740" stroke="#4F6EF7" stroke-width="0.8"/>
  <circle cx="25" cy="20" r="2" fill="#4F6EF740" stroke="#4F6EF7" stroke-width="0.8"/>
  <circle cx="18" cy="26" r="2" fill="#4F6EF740" stroke="#4F6EF7" stroke-width="0.8"/>
  <circle cx="9"  cy="22" r="2" fill="#4F6EF740" stroke="#4F6EF7" stroke-width="0.8"/>
  <circle cx="7"  cy="14" r="2" fill="#4F6EF740" stroke="#4F6EF7" stroke-width="0.8"/>
  <circle cx="16" cy="16" r="3.5" fill="#4F6EF7"/>
</svg>
